<?xml version="1.0" standalone="no"?>
<!DOCTYPE svg PUBLIC "-//W3C//DTD SVG 20010904//EN"
 "http://www.w3.org/TR/2001/REC-SVG-20010904/DTD/svg10.dtd">
<svg version="1.0" xmlns="http://www.w3.org/2000/svg"
 width="750.000000pt" height="750.000000pt" viewBox="0 0 750.000000 750.000000"
 preserveAspectRatio="xMidYMid meet">
<metadata>
Created by potrace 1.14, written by Peter Selinger 2001-2017
</metadata>
<g transform="translate(0.000000,750.000000) scale(0.100000,-0.100000)"
fill="#000000" stroke="none">
<path d="M1948 6935 c-2 -2 -29 -5 -60 -9 -601 -63 -1127 -522 -1278 -1115
-28 -112 -36 -166 -44 -293 -2 -31 -6 -61 -10 -66 -3 -5 -3 -12 1 -16 9 -8 10
-1346 1 -1346 -4 0 -5 -7 -1 -16 9 -23 10 -304 1 -304 -4 0 -5 -7 -1 -16 9
-25 9 -1584 0 -1584 -5 0 -5 -5 -2 -10 4 -6 8 -65 10 -133 3 -114 12 -197 21
-206 2 -2 -2 -11 -8 -20 -7 -9 -8 -13 -3 -8 5 4 19 -33 32 -85 13 -51 25 -100
27 -108 2 -8 14 -39 25 -68 12 -30 18 -59 15 -65 -4 -7 -4 -9 1 -5 10 9 86
-142 78 -155 -3 -6 -1 -7 5 -3 6 3 16 -7 24 -24 7 -16 16 -30 20 -30 5 0 8 -5
8 -12 0 -6 10 -22 22 -35 19 -21 20 -26 8 -34 -13 -9 -12 -10 2 -6 10 4 24 -5
40 -26 23 -32 85 -102 125 -143 40 -40 187 -159 215 -173 16 -8 28 -18 28 -23
0 -4 4 -8 10 -8 9 0 110 -58 120 -69 3 -4 10 -6 15 -7 26 -1 114 -48 108 -57
-3 -6 -1 -7 5 -3 14 9 63 -4 57 -14 -3 -5 5 -6 17 -2 16 4 19 2 13 -8 -5 -8
-4 -11 3 -6 15 9 63 -4 56 -15 -3 -5 2 -6 11 -3 8 4 23 0 32 -7 12 -10 14 -10
9 -2 -5 10 -1 11 18 4 13 -6 42 -12 63 -15 21 -3 51 -8 67 -11 16 -3 64 -8
107 -10 43 -2 83 -6 89 -10 5 -3 10 -3 10 2 0 9 141 9 156 0 6 -3 16 -2 23 2
7 5 28 5 47 1 19 -4 34 -5 34 -1 0 3 49 4 110 1 61 -3 110 -3 110 0 0 7 144 5
156 -3 6 -3 16 -2 23 2 7 5 28 5 47 1 19 -4 34 -5 34 -1 0 3 49 4 110 1 61 -3
110 -3 110 0 0 4 136 4 150 0 14 -4 90 -4 90 0 0 6 262 3 298 -3 12 -2 22 -1
22 2 0 7 307 4 326 -3 8 -3 14 -2 14 2 0 4 49 5 110 2 61 -3 110 -3 110 0 0 5
132 4 155 0 6 -1 15 -1 20 0 23 5 225 1 235 -5 5 -3 10 -3 10 2 0 4 49 6 110
3 61 -3 110 -3 110 0 0 5 132 4 155 0 6 -1 15 -1 20 0 19 4 134 2 143 -4 4 -2
14 -1 21 3 7 5 28 5 47 1 19 -4 34 -4 34 1 0 4 6 6 14 3 18 -7 206 -11 206 -4
0 3 39 6 88 6 103 2 130 5 272 35 30 7 61 12 68 12 6 0 12 3 12 7 0 4 6 7 13
8 6 0 32 8 56 17 24 9 50 14 57 11 8 -3 13 -1 11 3 -1 5 1 9 5 10 5 1 51 23
104 51 53 27 101 47 106 44 5 -3 7 0 6 8 -2 7 5 12 15 12 10 -1 16 0 13 3 -3
3 20 23 51 45 30 22 62 45 69 51 37 33 45 37 56 31 6 -4 8 -3 5 3 -7 11 52 70
66 65 4 -1 6 2 5 7 -2 5 17 31 42 57 108 117 173 212 244 357 47 96 106 256
106 289 0 10 5 18 11 18 5 0 8 4 5 9 -5 8 -1 33 20 141 3 14 7 172 9 352 2
180 6 332 9 336 3 5 3 12 0 15 -8 8 -8 292 -1 304 4 6 4 13 1 16 -8 8 -8 1572
0 1585 3 5 3 12 0 15 -8 8 -8 292 -1 304 4 6 3 13 0 17 -8 8 -5 134 3 147 3 5
2 9 -3 9 -4 0 -8 134 -8 298 -1 338 -5 395 -46 557 -12 44 -24 89 -29 100 -4
11 -20 52 -36 90 -31 78 -89 192 -110 216 -8 8 -14 19 -14 22 0 4 -17 31 -37
59 -200 281 -493 488 -815 577 -204 57 -86 54 -2070 56 -1006 1 -1829 1 -1830
0z"/>
<path d="M5906 562 c-3 -5 1 -9 9 -9 8 0 12 4 9 9 -3 4 -7 8 -9 8 -2 0 -6 -4
-9 -8z"/>
<path d="M1987 539 c7 -7 15 -10 18 -7 3 3 -2 9 -12 12 -14 6 -15 5 -6 -5z"/>
<path d="M1740 526 c0 -2 8 -10 18 -17 15 -13 16 -12 3 4 -13 16 -21 21 -21
13z"/>
<path d="M5635 431 c-3 -5 -2 -12 3 -15 5 -3 9 1 9 9 0 17 -3 19 -12 6z"/>
<path d="M2876 387 c3 -10 9 -15 12 -12 3 3 0 11 -7 18 -10 9 -11 8 -5 -6z"/>
<path d="M4796 387 c3 -10 9 -15 12 -12 3 3 0 11 -7 18 -10 9 -11 8 -5 -6z"/>
</g>
</svg>
